# 3ds Max Wavefront OBJ Exporter v0.97b - (c)2007 guruware
# File Created: 10.05.2019 10:03:15

mtllib fountainModel.mtl

#
# object Tube01
#

v  1173.6257 -29.1533 0.0725
v  1173.6257 71.6467 0.0725
v  594.0255 71.6467 1003.9689
v  594.0255 -29.1533 1003.9689
v  1072.8257 71.6467 0.0725
v  543.6255 71.6467 916.6735
v  1072.8257 -29.1533 0.0725
v  543.6255 -29.1533 916.6735
v  -565.1745 71.6467 1003.9686
v  -565.1745 -29.1533 1003.9686
v  -514.7744 71.6467 916.6732
v  -514.7744 -29.1533 916.6732
v  -1144.7742 71.6467 0.0717
v  -1144.7742 -29.1533 0.0717
v  -1043.9741 71.6467 0.0717
v  -1043.9741 -29.1533 0.0717
v  -565.1738 71.6467 -1003.8246
v  -565.1738 -29.1533 -1003.8246
v  -514.7739 71.6467 -916.5292
v  -514.7739 -29.1533 -916.5292
v  594.0262 71.6467 -1003.8243
v  594.0262 -29.1533 -1003.8243
v  543.6261 71.6467 -916.5289
v  543.6261 -29.1533 -916.5289
# 24 vertices

vn 0.7924 -0.6100 0.0000
vn 0.7924 0.6100 0.0000
vn 0.3962 0.6100 0.6862
vn 0.3962 -0.6100 0.6862
vn -0.5447 0.8386 -0.0000
vn -0.2724 0.8386 -0.4717
vn -0.5447 -0.8386 -0.0000
vn -0.2724 -0.8386 -0.4717
vn -0.3962 0.6100 0.6862
vn -0.3962 -0.6100 0.6862
vn 0.2724 0.8386 -0.4717
vn 0.2724 -0.8386 -0.4717
vn -0.7924 0.6100 -0.0000
vn -0.7924 -0.6100 -0.0000
vn 0.5447 0.8386 0.0000
vn 0.5447 -0.8386 0.0000
vn -0.3962 0.6100 -0.6862
vn -0.3962 -0.6100 -0.6862
vn 0.2724 0.8386 0.4717
vn 0.2724 -0.8386 0.4717
vn 0.3962 0.6100 -0.6862
vn 0.3962 -0.6100 -0.6862
vn -0.2724 0.8386 0.4717
vn -0.2724 -0.8386 0.4717
# 24 vertex normals

vt 0.5000 0.7000 -1.8000
vt 0.5000 0.3000 -1.8000
vt 2.4919 0.3000 -0.6500
vt 2.4919 0.7000 -0.6500
vt -1.8000 0.5000 0.3000
vt -1.6000 0.5000 0.3000
vt -0.5500 2.3187 0.3000
vt -0.6500 2.4919 0.3000
vt 0.5000 0.3000 -1.6000
vt 0.5000 0.7000 -1.6000
vt -1.3187 0.7000 -0.5500
vt -1.3187 0.3000 -0.5500
vt 2.6000 0.5000 0.7000
vt 2.8000 0.5000 0.7000
vt 1.6500 2.4919 0.7000
vt 1.5500 2.3187 0.7000
vt -0.6500 0.7000 2.4919
vt -0.6500 0.3000 2.4919
vt 1.6500 0.3000 2.4919
vt 1.6500 0.7000 2.4919
vt 1.5500 2.3187 0.3000
vt 1.6500 2.4919 0.3000
vt 1.5500 0.3000 2.3187
vt 1.5500 0.7000 2.3187
vt -0.5500 0.7000 2.3187
vt -0.5500 0.3000 2.3187
vt -0.6500 2.4919 0.7000
vt -0.5500 2.3187 0.7000
vt -1.4919 0.7000 1.6500
vt -1.4919 0.3000 1.6500
vt 0.5000 0.3000 2.8000
vt 0.5000 0.7000 2.8000
vt 2.6000 0.5000 0.3000
vt 2.8000 0.5000 0.3000
vt 2.3187 0.3000 1.5500
vt 2.3187 0.7000 1.5500
vt 0.5000 0.7000 2.6000
vt 0.5000 0.3000 2.6000
vt -1.8000 0.5000 0.7000
vt -1.6000 0.5000 0.7000
vt 2.4919 0.3000 1.6500
vt 2.4919 0.7000 1.6500
vt 1.5500 -1.3187 0.3000
vt 1.6500 -1.4919 0.3000
vt -1.3187 0.7000 1.5500
vt -1.3187 0.3000 1.5500
vt -0.6500 -1.4919 0.7000
vt -0.5500 -1.3187 0.7000
vt -0.6500 0.7000 -1.4919
vt -0.6500 0.3000 -1.4919
vt 1.6500 0.3000 -1.4919
vt 1.6500 0.7000 -1.4919
vt -0.5500 -1.3187 0.3000
vt -0.6500 -1.4919 0.3000
vt 1.5500 0.3000 -1.3187
vt 1.5500 0.7000 -1.3187
vt -0.5500 0.7000 -1.3187
vt -0.5500 0.3000 -1.3187
vt 1.6500 -1.4919 0.7000
vt 1.5500 -1.3187 0.7000
vt -1.4919 0.7000 -0.6500
vt -1.4919 0.3000 -0.6500
vt 2.3187 0.3000 -0.5500
vt 2.3187 0.7000 -0.5500
# 64 texture coords

o Tube01
g Tube01
usemtl 3
s 2
f 1/1/1 2/2/2 3/3/3 4/4/4 
s 4
f 2/5/2 5/6/5 6/7/6 3/8/3 
s 2
f 5/9/5 7/10/7 8/11/8 6/12/6 
s 4
f 7/13/7 1/14/1 4/15/4 8/16/8 
s 2
f 4/17/4 3/18/3 9/19/9 10/20/10 
s 4
f 3/8/3 6/7/6 11/21/11 9/22/9 
s 2
f 6/23/6 8/24/8 12/25/12 11/26/11 
s 4
f 8/16/8 4/15/4 10/27/10 12/28/12 
s 2
f 10/29/10 9/30/9 13/31/13 14/32/14 
s 4
f 9/22/9 11/21/11 15/33/15 13/34/13 
s 2
f 11/35/11 12/36/12 16/37/16 15/38/15 
s 4
f 12/28/12 10/27/10 14/39/14 16/40/16 
s 2
f 14/32/14 13/31/13 17/41/17 18/42/18 
s 4
f 13/34/13 15/33/15 19/43/19 17/44/17 
s 2
f 15/38/15 16/37/16 20/45/20 19/46/19 
s 4
f 16/40/16 14/39/14 18/47/18 20/48/20 
s 2
f 18/49/18 17/50/17 21/51/21 22/52/22 
s 4
f 17/44/17 19/43/19 23/53/23 21/54/21 
s 2
f 19/55/19 20/56/20 24/57/24 23/58/23 
s 4
f 20/48/20 18/47/18 22/59/22 24/60/24 
s 2
f 22/61/22 21/62/21 2/2/2 1/1/1 
s 4
f 21/54/21 23/53/23 5/6/5 2/5/2 
s 2
f 23/63/23 24/64/24 7/10/7 5/9/5 
s 4
f 24/60/24 22/59/22 1/14/1 7/13/7 
# 24 polygons

#
# object Gengon01
#

v  14.4259 -3.1885 0.0721
v  1072.8258 -3.1885 0.0721
v  1014.0258 -3.1885 -101.7725
v  955.2258 -3.1885 -203.6171
v  896.4258 -3.1885 -305.4617
v  837.6257 -3.1885 -407.3063
v  778.8258 -3.1885 -509.1509
v  720.0258 -3.1885 -610.9955
v  661.2258 -3.1885 -712.8401
v  602.4258 -3.1885 -814.6847
v  543.6258 -3.1885 -916.5292
v  426.0258 -3.1885 -916.5292
v  308.4258 -3.1885 -916.5292
v  190.8258 -3.1885 -916.5292
v  73.2258 -3.1885 -916.5292
v  -44.3741 -3.1885 -916.5291
v  -161.9742 -3.1885 -916.5291
v  -279.5741 -3.1885 -916.5291
v  -397.1741 -3.1885 -916.5291
v  -514.7742 -3.1885 -916.5291
v  -573.5742 -3.1885 -814.6845
v  -632.3741 -3.1885 -712.8400
v  -691.1742 -3.1885 -610.9954
v  -749.9742 -3.1885 -509.1507
v  -808.7742 -3.1885 -407.3061
v  -867.5741 -3.1885 -305.4615
v  -926.3742 -3.1885 -203.6169
v  -985.1741 -3.1885 -101.7724
v  -1043.9740 -3.1885 0.0722
v  -985.1741 -3.1885 101.9168
v  -926.3741 -3.1885 203.7614
v  -867.5741 -3.1885 305.6060
v  -808.7740 -3.1885 407.4505
v  -749.9741 -3.1885 509.2951
v  -691.1741 -3.1885 611.1396
v  -632.3741 -3.1885 712.9843
v  -573.5740 -3.1885 814.8289
v  -514.7740 -3.1885 916.6734
v  -397.1740 -3.1885 916.6734
v  -279.5740 -3.1885 916.6734
v  -161.9741 -3.1885 916.6734
v  -44.3741 -3.1885 916.6734
v  73.2259 -3.1885 916.6734
v  190.8259 -3.1885 916.6734
v  308.4259 -3.1885 916.6734
v  426.0258 -3.1885 916.6734
v  543.6257 -3.1885 916.6734
v  602.4257 -3.1885 814.8289
v  661.2258 -3.1885 712.9842
v  720.0257 -3.1885 611.1396
v  778.8258 -3.1885 509.2950
v  837.6257 -3.1885 407.4504
v  896.4258 -3.1885 305.6059
v  955.2258 -3.1885 203.7612
v  1014.0258 -3.1885 101.9166
v  1072.8258 -28.3885 0.0721
v  1014.0258 -28.3885 -101.7725
v  955.2258 -28.3885 -203.6171
v  896.4258 -28.3885 -305.4617
v  837.6257 -28.3885 -407.3063
v  778.8258 -28.3885 -509.1509
v  720.0258 -28.3885 -610.9955
v  661.2258 -28.3885 -712.8401
v  602.4258 -28.3885 -814.6847
v  543.6258 -28.3885 -916.5292
v  426.0258 -28.3885 -916.5292
v  308.4258 -28.3885 -916.5292
v  190.8258 -28.3885 -916.5292
v  73.2258 -28.3885 -916.5292
v  -44.3741 -28.3885 -916.5291
v  -161.9742 -28.3885 -916.5291
v  -279.5741 -28.3885 -916.5291
v  -397.1741 -28.3885 -916.5291
v  -514.7742 -28.3885 -916.5291
v  -573.5742 -28.3885 -814.6845
v  -632.3741 -28.3885 -712.8400
v  -691.1742 -28.3885 -610.9954
v  -749.9742 -28.3885 -509.1507
v  -808.7742 -28.3885 -407.3061
v  -867.5741 -28.3885 -305.4615
v  -926.3742 -28.3885 -203.6169
v  -985.1741 -28.3885 -101.7724
v  -1043.9740 -28.3885 0.0722
v  -985.1741 -28.3885 101.9168
v  -926.3741 -28.3885 203.7614
v  -867.5741 -28.3885 305.6060
v  -808.7740 -28.3885 407.4505
v  -749.9741 -28.3885 509.2951
v  -691.1741 -28.3885 611.1396
v  -632.3741 -28.3885 712.9843
v  -573.5740 -28.3885 814.8289
v  -514.7740 -28.3885 916.6734
v  -397.1740 -28.3885 916.6734
v  -279.5740 -28.3885 916.6734
v  -161.9741 -28.3885 916.6734
v  -44.3741 -28.3885 916.6734
v  73.2259 -28.3885 916.6734
v  190.8259 -28.3885 916.6734
v  308.4259 -28.3885 916.6734
v  426.0258 -28.3885 916.6734
v  543.6257 -28.3885 916.6734
v  602.4257 -28.3885 814.8289
v  661.2258 -28.3885 712.9842
v  720.0257 -28.3885 611.1396
v  778.8258 -28.3885 509.2950
v  837.6257 -28.3885 407.4504
v  896.4258 -28.3885 305.6059
v  955.2258 -28.3885 203.7612
v  1014.0258 -28.3885 101.9166
v  14.4259 -28.3885 0.0721
# 110 vertices

vn 0.0000 1.0000 -0.0000
vn 0.7924 0.6100 0.0000
vn 0.6124 0.7071 -0.3536
vn 0.3962 0.6100 -0.6862
vn 0.0000 0.7071 -0.7071
vn -0.0000 0.7071 -0.7071
vn -0.3961 0.6100 -0.6862
vn -0.6123 0.7071 -0.3535
vn -0.6124 0.7071 -0.3536
vn -0.7924 0.6100 -0.0000
vn -0.6124 0.7071 0.3536
vn -0.3962 0.6100 0.6862
vn 0.0000 0.7071 0.7071
vn 0.3962 0.6100 0.6862
vn 0.6123 0.7071 0.3535
vn 0.6124 0.7071 0.3536
vn 0.7924 -0.6100 0.0000
vn 0.6124 -0.7071 -0.3536
vn 0.3962 -0.6100 -0.6862
vn 0.0000 -0.7071 -0.7071
vn -0.0000 -0.7071 -0.7071
vn -0.3961 -0.6100 -0.6862
vn -0.6123 -0.7071 -0.3535
vn -0.6124 -0.7071 -0.3536
vn -0.7924 -0.6100 -0.0000
vn -0.6124 -0.7071 0.3536
vn -0.3962 -0.6100 0.6862
vn 0.0000 -0.7071 0.7071
vn 0.3962 -0.6100 0.6862
vn 0.6123 -0.7071 0.3535
vn 0.6124 -0.7071 0.3536
vn 0.0000 -1.0000 -0.0000
# 32 vertex normals

vt 0.5000 0.5000 0.0000
vt 1.0000 0.5000 0.0000
vt 0.9722 0.5481 0.0000
vt 0.9444 0.5962 0.0000
vt 0.9167 0.6443 0.0000
vt 0.8889 0.6925 0.0000
vt 0.8611 0.7406 0.0000
vt 0.8333 0.7887 0.0000
vt 0.8056 0.8368 0.0000
vt 0.7778 0.8849 0.0000
vt 0.7500 0.9330 0.0000
vt 0.6944 0.9330 0.0000
vt 0.6389 0.9330 0.0000
vt 0.5833 0.9330 0.0000
vt 0.5278 0.9330 0.0000
vt 0.4722 0.9330 0.0000
vt 0.4167 0.9330 0.0000
vt 0.3611 0.9330 0.0000
vt 0.3056 0.9330 0.0000
vt 0.2500 0.9330 0.0000
vt 0.2222 0.8849 0.0000
vt 0.1944 0.8368 0.0000
vt 0.1667 0.7887 0.0000
vt 0.1389 0.7406 0.0000
vt 0.1111 0.6925 0.0000
vt 0.0833 0.6443 0.0000
vt 0.0556 0.5962 0.0000
vt 0.0278 0.5481 0.0000
vt 0.0000 0.5000 0.0000
vt 0.0278 0.4519 0.0000
vt 0.0556 0.4038 0.0000
vt 0.0833 0.3557 0.0000
vt 0.1111 0.3075 0.0000
vt 0.1389 0.2594 0.0000
vt 0.1667 0.2113 0.0000
vt 0.1944 0.1632 0.0000
vt 0.2222 0.1151 0.0000
vt 0.2500 0.0670 0.0000
vt 0.3056 0.0670 0.0000
vt 0.3611 0.0670 0.0000
vt 0.4167 0.0670 0.0000
vt 0.4722 0.0670 0.0000
vt 0.5278 0.0670 0.0000
vt 0.5833 0.0670 0.0000
vt 0.6389 0.0670 0.0000
vt 0.6944 0.0670 0.0000
vt 0.7500 0.0670 0.0000
vt 0.7778 0.1151 0.0000
vt 0.8056 0.1632 0.0000
vt 0.8333 0.2113 0.0000
vt 0.8611 0.2594 0.0000
vt 0.8889 0.3075 0.0000
vt 0.9167 0.3557 0.0000
vt 0.9444 0.4038 0.0000
vt 0.9722 0.4519 0.0000
vt 0.0000 1.0000 0.0000
vt 0.0000 0.0000 0.0000
vt 0.0185 0.0000 0.0000
vt 0.0185 1.0000 0.0000
vt 0.0370 0.0000 0.0000
vt 0.0370 1.0000 0.0000
vt 0.0556 0.0000 0.0000
vt 0.0556 1.0000 0.0000
vt 0.0741 0.0000 0.0000
vt 0.0741 1.0000 0.0000
vt 0.0926 0.0000 0.0000
vt 0.0926 1.0000 0.0000
vt 0.1111 0.0000 0.0000
vt 0.1111 1.0000 0.0000
vt 0.1296 0.0000 0.0000
vt 0.1296 1.0000 0.0000
vt 0.1481 0.0000 0.0000
vt 0.1481 1.0000 0.0000
vt 0.1667 0.0000 0.0000
vt 0.1667 1.0000 0.0000
vt 0.1852 0.0000 0.0000
vt 0.1852 1.0000 0.0000
vt 0.2037 0.0000 0.0000
vt 0.2037 1.0000 0.0000
vt 0.2222 0.0000 0.0000
vt 0.2222 1.0000 0.0000
vt 0.2407 0.0000 0.0000
vt 0.2407 1.0000 0.0000
vt 0.2593 0.0000 0.0000
vt 0.2593 1.0000 0.0000
vt 0.2778 0.0000 0.0000
vt 0.2778 1.0000 0.0000
vt 0.2963 0.0000 0.0000
vt 0.2963 1.0000 0.0000
vt 0.3148 0.0000 0.0000
vt 0.3148 1.0000 0.0000
vt 0.3333 0.0000 0.0000
vt 0.3333 1.0000 0.0000
vt 0.3519 0.0000 0.0000
vt 0.3519 1.0000 0.0000
vt 0.3704 0.0000 0.0000
vt 0.3704 1.0000 0.0000
vt 0.3889 0.0000 0.0000
vt 0.3889 1.0000 0.0000
vt 0.4074 0.0000 0.0000
vt 0.4074 1.0000 0.0000
vt 0.4259 0.0000 0.0000
vt 0.4259 1.0000 0.0000
vt 0.4444 0.0000 0.0000
vt 0.4444 1.0000 0.0000
vt 0.4630 0.0000 0.0000
vt 0.4630 1.0000 0.0000
vt 0.4815 0.0000 0.0000
vt 0.4815 1.0000 0.0000
vt 0.5000 0.0000 0.0000
vt 0.5000 1.0000 0.0000
vt 0.5185 0.0000 0.0000
vt 0.5185 1.0000 0.0000
vt 0.5370 0.0000 0.0000
vt 0.5370 1.0000 0.0000
vt 0.5556 0.0000 0.0000
vt 0.5556 1.0000 0.0000
vt 0.5741 0.0000 0.0000
vt 0.5741 1.0000 0.0000
vt 0.5926 0.0000 0.0000
vt 0.5926 1.0000 0.0000
vt 0.6111 0.0000 0.0000
vt 0.6111 1.0000 0.0000
vt 0.6296 0.0000 0.0000
vt 0.6296 1.0000 0.0000
vt 0.6481 0.0000 0.0000
vt 0.6481 1.0000 0.0000
vt 0.6667 0.0000 0.0000
vt 0.6667 1.0000 0.0000
vt 0.6852 0.0000 0.0000
vt 0.6852 1.0000 0.0000
vt 0.7037 0.0000 0.0000
vt 0.7037 1.0000 0.0000
vt 0.7222 0.0000 0.0000
vt 0.7222 1.0000 0.0000
vt 0.7407 0.0000 0.0000
vt 0.7407 1.0000 0.0000
vt 0.7593 0.0000 0.0000
vt 0.7593 1.0000 0.0000
vt 0.7778 0.0000 0.0000
vt 0.7778 1.0000 0.0000
vt 0.7963 0.0000 0.0000
vt 0.7963 1.0000 0.0000
vt 0.8148 0.0000 0.0000
vt 0.8148 1.0000 0.0000
vt 0.8333 0.0000 0.0000
vt 0.8333 1.0000 0.0000
vt 0.8519 0.0000 0.0000
vt 0.8519 1.0000 0.0000
vt 0.8704 0.0000 0.0000
vt 0.8704 1.0000 0.0000
vt 0.8889 0.0000 0.0000
vt 0.8889 1.0000 0.0000
vt 0.9074 0.0000 0.0000
vt 0.9074 1.0000 0.0000
vt 0.9259 0.0000 0.0000
vt 0.9259 1.0000 0.0000
vt 0.9444 0.0000 0.0000
vt 0.9444 1.0000 0.0000
vt 0.9630 0.0000 0.0000
vt 0.9630 1.0000 0.0000
vt 0.9815 0.0000 0.0000
vt 0.9815 1.0000 0.0000
vt 1.0000 0.0000 0.0000
vt 1.0000 1.0000 0.0000
# 165 texture coords

o Gengon01
g Gengon01
usemtl Material__8
s off
f 25/65/25 26/66/26 27/67/27 
f 25/65/25 27/67/27 28/68/27 
f 25/65/25 28/68/27 29/69/27 
f 25/65/25 29/69/27 30/70/27 
f 25/65/25 30/70/27 31/71/27 
f 25/65/25 31/71/27 32/72/27 
f 25/65/25 32/72/27 33/73/27 
f 25/65/25 33/73/27 34/74/27 
f 25/65/25 34/74/27 35/75/28 
f 25/65/25 35/75/28 36/76/29 
f 25/65/25 36/76/29 37/77/29 
f 25/65/25 37/77/29 38/78/29 
f 25/65/25 38/78/29 39/79/30 
f 25/65/25 39/79/30 40/80/30 
f 25/65/25 40/80/30 41/81/29 
f 25/65/25 41/81/29 42/82/29 
f 25/65/25 42/82/29 43/83/29 
f 25/65/25 43/83/29 44/84/31 
f 25/65/25 44/84/31 45/85/32 
f 25/65/25 45/85/32 46/86/33 
f 25/65/25 46/86/33 47/87/33 
f 25/65/25 47/87/33 48/88/33 
f 25/65/25 48/88/33 49/89/33 
f 25/65/25 49/89/33 50/90/33 
f 25/65/25 50/90/33 51/91/33 
f 25/65/25 51/91/33 52/92/33 
f 25/65/25 52/92/33 53/93/34 
f 25/65/25 53/93/34 54/94/35 
f 25/65/25 54/94/35 55/95/35 
f 25/65/25 55/95/35 56/96/35 
f 25/65/25 56/96/35 57/97/35 
f 25/65/25 57/97/35 58/98/35 
f 25/65/25 58/98/35 59/99/35 
f 25/65/25 59/99/35 60/100/35 
f 25/65/25 60/100/35 61/101/35 
f 25/65/25 61/101/35 62/102/36 
f 25/65/25 62/102/36 63/103/37 
f 25/65/25 63/103/37 64/104/37 
f 25/65/25 64/104/37 65/105/37 
f 25/65/25 65/105/37 66/106/37 
f 25/65/25 66/106/37 67/107/37 
f 25/65/25 67/107/37 68/108/37 
f 25/65/25 68/108/37 69/109/37 
f 25/65/25 69/109/37 70/110/37 
f 25/65/25 70/110/37 71/111/38 
f 25/65/25 71/111/38 72/112/39 
f 25/65/25 72/112/39 73/113/39 
f 25/65/25 73/113/39 74/114/40 
f 25/65/25 74/114/40 75/115/40 
f 25/65/25 75/115/40 76/116/40 
f 25/65/25 76/116/40 77/117/40 
f 25/65/25 77/117/40 78/118/40 
f 25/65/25 78/118/40 79/119/40 
f 25/65/25 79/119/40 26/66/26 
f 26/120/26 80/121/41 81/122/42 27/123/27 
f 27/123/27 81/122/42 82/124/42 28/125/27 
f 28/125/27 82/124/42 83/126/42 29/127/27 
f 29/127/27 83/126/42 84/128/42 30/129/27 
f 30/129/27 84/128/42 85/130/42 31/131/27 
f 31/131/27 85/130/42 86/132/42 32/133/27 
f 32/133/27 86/132/42 87/134/42 33/135/27 
f 33/135/27 87/134/42 88/136/42 34/137/27 
f 34/137/27 88/136/42 89/138/43 35/139/28 
f 35/139/28 89/138/43 90/140/44 36/141/29 
f 36/141/29 90/140/44 91/142/44 37/143/29 
f 37/143/29 91/142/44 92/144/44 38/145/29 
f 38/145/29 92/144/44 93/146/45 39/147/30 
f 39/147/30 93/146/45 94/148/45 40/149/30 
f 40/149/30 94/148/45 95/150/44 41/151/29 
f 41/151/29 95/150/44 96/152/44 42/153/29 
f 42/153/29 96/152/44 97/154/44 43/155/29 
f 43/155/29 97/154/44 98/156/46 44/157/31 
f 44/157/31 98/156/46 99/158/47 45/159/32 
f 45/159/32 99/158/47 100/160/48 46/161/33 
f 46/161/33 100/160/48 101/162/48 47/163/33 
f 47/163/33 101/162/48 102/164/48 48/165/33 
f 48/165/33 102/164/48 103/166/48 49/167/33 
f 49/167/33 103/166/48 104/168/48 50/169/33 
f 50/169/33 104/168/48 105/170/48 51/171/33 
f 51/171/33 105/170/48 106/172/48 52/173/33 
f 52/173/33 106/172/48 107/174/49 53/175/34 
f 53/175/34 107/174/49 108/176/50 54/177/35 
f 54/177/35 108/176/50 109/178/50 55/179/35 
f 55/179/35 109/178/50 110/180/50 56/181/35 
f 56/181/35 110/180/50 111/182/50 57/183/35 
f 57/183/35 111/182/50 112/184/50 58/185/35 
f 58/185/35 112/184/50 113/186/50 59/187/35 
f 59/187/35 113/186/50 114/188/50 60/189/35 
f 60/189/35 114/188/50 115/190/50 61/191/35 
f 61/191/35 115/190/50 116/192/51 62/193/36 
f 62/193/36 116/192/51 117/194/52 63/195/37 
f 63/195/37 117/194/52 118/196/52 64/197/37 
f 64/197/37 118/196/52 119/198/52 65/199/37 
f 65/199/37 119/198/52 120/200/52 66/201/37 
f 66/201/37 120/200/52 121/202/52 67/203/37 
f 67/203/37 121/202/52 122/204/52 68/205/37 
f 68/205/37 122/204/52 123/206/52 69/207/37 
f 69/207/37 123/206/52 124/208/52 70/209/37 
f 70/209/37 124/208/52 125/210/53 71/211/38 
f 71/211/38 125/210/53 126/212/54 72/213/39 
f 72/213/39 126/212/54 127/214/54 73/215/39 
f 73/215/39 127/214/54 128/216/55 74/217/40 
f 74/217/40 128/216/55 129/218/55 75/219/40 
f 75/219/40 129/218/55 130/220/55 76/221/40 
f 76/221/40 130/220/55 131/222/55 77/223/40 
f 77/223/40 131/222/55 132/224/55 78/225/40 
f 78/225/40 132/224/55 133/226/55 79/227/40 
f 79/227/40 133/226/55 80/228/41 26/229/26 
f 80/66/41 134/65/56 81/67/42 
f 81/67/42 134/65/56 82/68/42 
f 82/68/42 134/65/56 83/69/42 
f 83/69/42 134/65/56 84/70/42 
f 84/70/42 134/65/56 85/71/42 
f 85/71/42 134/65/56 86/72/42 
f 86/72/42 134/65/56 87/73/42 
f 87/73/42 134/65/56 88/74/42 
f 88/74/42 134/65/56 89/75/43 
f 89/75/43 134/65/56 90/76/44 
f 90/76/44 134/65/56 91/77/44 
f 91/77/44 134/65/56 92/78/44 
f 92/78/44 134/65/56 93/79/45 
f 93/79/45 134/65/56 94/80/45 
f 94/80/45 134/65/56 95/81/44 
f 95/81/44 134/65/56 96/82/44 
f 96/82/44 134/65/56 97/83/44 
f 97/83/44 134/65/56 98/84/46 
f 98/84/46 134/65/56 99/85/47 
f 99/85/47 134/65/56 100/86/48 
f 100/86/48 134/65/56 101/87/48 
f 101/87/48 134/65/56 102/88/48 
f 102/88/48 134/65/56 103/89/48 
f 103/89/48 134/65/56 104/90/48 
f 104/90/48 134/65/56 105/91/48 
f 105/91/48 134/65/56 106/92/48 
f 106/92/48 134/65/56 107/93/49 
f 107/93/49 134/65/56 108/94/50 
f 108/94/50 134/65/56 109/95/50 
f 109/95/50 134/65/56 110/96/50 
f 110/96/50 134/65/56 111/97/50 
f 111/97/50 134/65/56 112/98/50 
f 112/98/50 134/65/56 113/99/50 
f 113/99/50 134/65/56 114/100/50 
f 114/100/50 134/65/56 115/101/50 
f 115/101/50 134/65/56 116/102/51 
f 116/102/51 134/65/56 117/103/52 
f 117/103/52 134/65/56 118/104/52 
f 118/104/52 134/65/56 119/105/52 
f 119/105/52 134/65/56 120/106/52 
f 120/106/52 134/65/56 121/107/52 
f 121/107/52 134/65/56 122/108/52 
f 122/108/52 134/65/56 123/109/52 
f 123/109/52 134/65/56 124/110/52 
f 124/110/52 134/65/56 125/111/53 
f 125/111/53 134/65/56 126/112/54 
f 126/112/54 134/65/56 127/113/54 
f 127/113/54 134/65/56 128/114/55 
f 128/114/55 134/65/56 129/115/55 
f 129/115/55 134/65/56 130/116/55 
f 130/116/55 134/65/56 131/117/55 
f 131/117/55 134/65/56 132/118/55 
f 132/118/55 134/65/56 133/119/55 
f 133/119/55 134/65/56 80/66/41 
# 54 polygons - 108 triangles

